<mxfile host="app.diagrams.net" modified="2023-12-17T15:12:40.872Z" agent="Mozilla/5.0 (Windows NT 10.0; Win64; x64) AppleWebKit/537.36 (KHTML, like Gecko) Chrome/120.0.0.0 Safari/537.36" etag="wjT_x8X6t1-YYi0CuZAY" version="22.1.11" type="device">
  <diagram name="Страница — 1" id="vlCkhn9qDWgcaH14bxpS">
    <mxGraphModel dx="1434" dy="780" grid="1" gridSize="10" guides="1" tooltips="1" connect="1" arrows="1" fold="1" page="1" pageScale="1" pageWidth="827" pageHeight="1169" math="0" shadow="0">
      <root>
        <mxCell id="0" />
        <mxCell id="1" parent="0" />
        <mxCell id="5QJh2rL0dErnxahmYljS-1" value="Class&lt;br&gt;Animals" style="swimlane;fontStyle=0;childLayout=stackLayout;horizontal=1;startSize=30;horizontalStack=0;resizeParent=1;resizeParentMax=0;resizeLast=0;collapsible=1;marginBottom=0;whiteSpace=wrap;html=1;" vertex="1" parent="1">
          <mxGeometry x="344" y="90" width="140" height="60" as="geometry" />
        </mxCell>
        <mxCell id="5QJh2rL0dErnxahmYljS-20" style="edgeStyle=orthogonalEdgeStyle;rounded=0;orthogonalLoop=1;jettySize=auto;html=1;exitX=0.5;exitY=0;exitDx=0;exitDy=0;entryX=0.25;entryY=1;entryDx=0;entryDy=0;" edge="1" parent="1" source="5QJh2rL0dErnxahmYljS-5" target="5QJh2rL0dErnxahmYljS-1">
          <mxGeometry relative="1" as="geometry" />
        </mxCell>
        <mxCell id="5QJh2rL0dErnxahmYljS-5" value="Class&lt;br&gt;homeAnimals" style="swimlane;fontStyle=0;childLayout=stackLayout;horizontal=1;startSize=30;horizontalStack=0;resizeParent=1;resizeParentMax=0;resizeLast=0;collapsible=1;marginBottom=0;whiteSpace=wrap;html=1;" vertex="1" parent="1">
          <mxGeometry x="162" y="220" width="140" height="60" as="geometry" />
        </mxCell>
        <mxCell id="5QJh2rL0dErnxahmYljS-21" style="edgeStyle=orthogonalEdgeStyle;rounded=0;orthogonalLoop=1;jettySize=auto;html=1;exitX=0.5;exitY=0;exitDx=0;exitDy=0;entryX=0.75;entryY=1;entryDx=0;entryDy=0;" edge="1" parent="1" source="5QJh2rL0dErnxahmYljS-6" target="5QJh2rL0dErnxahmYljS-1">
          <mxGeometry relative="1" as="geometry" />
        </mxCell>
        <mxCell id="5QJh2rL0dErnxahmYljS-6" value="Class&lt;br&gt;packAnimals" style="swimlane;fontStyle=0;childLayout=stackLayout;horizontal=1;startSize=30;horizontalStack=0;resizeParent=1;resizeParentMax=0;resizeLast=0;collapsible=1;marginBottom=0;whiteSpace=wrap;html=1;" vertex="1" parent="1">
          <mxGeometry x="526" y="220" width="140" height="60" as="geometry" />
        </mxCell>
        <mxCell id="5QJh2rL0dErnxahmYljS-15" style="edgeStyle=orthogonalEdgeStyle;rounded=0;orthogonalLoop=1;jettySize=auto;html=1;exitX=0.5;exitY=0;exitDx=0;exitDy=0;entryX=0.25;entryY=1;entryDx=0;entryDy=0;" edge="1" parent="1" source="5QJh2rL0dErnxahmYljS-7" target="5QJh2rL0dErnxahmYljS-5">
          <mxGeometry relative="1" as="geometry" />
        </mxCell>
        <mxCell id="5QJh2rL0dErnxahmYljS-7" value="Class&lt;br&gt;dogs" style="swimlane;fontStyle=0;childLayout=stackLayout;horizontal=1;startSize=30;horizontalStack=0;resizeParent=1;resizeParentMax=0;resizeLast=0;collapsible=1;marginBottom=0;whiteSpace=wrap;html=1;" vertex="1" parent="1">
          <mxGeometry x="62" y="330" width="100" height="60" as="geometry" />
        </mxCell>
        <mxCell id="5QJh2rL0dErnxahmYljS-14" style="edgeStyle=orthogonalEdgeStyle;rounded=0;orthogonalLoop=1;jettySize=auto;html=1;exitX=0.5;exitY=0;exitDx=0;exitDy=0;entryX=0.5;entryY=1;entryDx=0;entryDy=0;" edge="1" parent="1" source="5QJh2rL0dErnxahmYljS-8" target="5QJh2rL0dErnxahmYljS-5">
          <mxGeometry relative="1" as="geometry" />
        </mxCell>
        <mxCell id="5QJh2rL0dErnxahmYljS-8" value="Class&lt;br&gt;cats" style="swimlane;fontStyle=0;childLayout=stackLayout;horizontal=1;startSize=30;horizontalStack=0;resizeParent=1;resizeParentMax=0;resizeLast=0;collapsible=1;marginBottom=0;whiteSpace=wrap;html=1;" vertex="1" parent="1">
          <mxGeometry x="182" y="330" width="100" height="60" as="geometry" />
        </mxCell>
        <mxCell id="5QJh2rL0dErnxahmYljS-16" style="edgeStyle=orthogonalEdgeStyle;rounded=0;orthogonalLoop=1;jettySize=auto;html=1;exitX=0.5;exitY=0;exitDx=0;exitDy=0;" edge="1" parent="1" source="5QJh2rL0dErnxahmYljS-9">
          <mxGeometry relative="1" as="geometry">
            <mxPoint x="272" y="270" as="targetPoint" />
          </mxGeometry>
        </mxCell>
        <mxCell id="5QJh2rL0dErnxahmYljS-9" value="Class&lt;br&gt;hamster" style="swimlane;fontStyle=0;childLayout=stackLayout;horizontal=1;startSize=30;horizontalStack=0;resizeParent=1;resizeParentMax=0;resizeLast=0;collapsible=1;marginBottom=0;whiteSpace=wrap;html=1;" vertex="1" parent="1">
          <mxGeometry x="302" y="330" width="100" height="60" as="geometry" />
        </mxCell>
        <mxCell id="5QJh2rL0dErnxahmYljS-17" style="edgeStyle=orthogonalEdgeStyle;rounded=0;orthogonalLoop=1;jettySize=auto;html=1;entryX=0.25;entryY=1;entryDx=0;entryDy=0;" edge="1" parent="1" source="5QJh2rL0dErnxahmYljS-10" target="5QJh2rL0dErnxahmYljS-6">
          <mxGeometry relative="1" as="geometry" />
        </mxCell>
        <mxCell id="5QJh2rL0dErnxahmYljS-10" value="Class&lt;br&gt;horses" style="swimlane;fontStyle=0;childLayout=stackLayout;horizontal=1;startSize=30;horizontalStack=0;resizeParent=1;resizeParentMax=0;resizeLast=0;collapsible=1;marginBottom=0;whiteSpace=wrap;html=1;" vertex="1" parent="1">
          <mxGeometry x="426" y="330" width="100" height="60" as="geometry" />
        </mxCell>
        <mxCell id="5QJh2rL0dErnxahmYljS-19" style="edgeStyle=orthogonalEdgeStyle;rounded=0;orthogonalLoop=1;jettySize=auto;html=1;exitX=0.5;exitY=0;exitDx=0;exitDy=0;entryX=0.5;entryY=1;entryDx=0;entryDy=0;" edge="1" parent="1" source="5QJh2rL0dErnxahmYljS-11" target="5QJh2rL0dErnxahmYljS-6">
          <mxGeometry relative="1" as="geometry" />
        </mxCell>
        <mxCell id="5QJh2rL0dErnxahmYljS-11" value="Class&lt;br&gt;camels" style="swimlane;fontStyle=0;childLayout=stackLayout;horizontal=1;startSize=30;horizontalStack=0;resizeParent=1;resizeParentMax=0;resizeLast=0;collapsible=1;marginBottom=0;whiteSpace=wrap;html=1;" vertex="1" parent="1">
          <mxGeometry x="546" y="330" width="100" height="60" as="geometry" />
        </mxCell>
        <mxCell id="5QJh2rL0dErnxahmYljS-18" style="edgeStyle=orthogonalEdgeStyle;rounded=0;orthogonalLoop=1;jettySize=auto;html=1;entryX=0.75;entryY=1;entryDx=0;entryDy=0;" edge="1" parent="1" source="5QJh2rL0dErnxahmYljS-12" target="5QJh2rL0dErnxahmYljS-6">
          <mxGeometry relative="1" as="geometry" />
        </mxCell>
        <mxCell id="5QJh2rL0dErnxahmYljS-12" value="Class&lt;br&gt;donkeys" style="swimlane;fontStyle=0;childLayout=stackLayout;horizontal=1;startSize=30;horizontalStack=0;resizeParent=1;resizeParentMax=0;resizeLast=0;collapsible=1;marginBottom=0;whiteSpace=wrap;html=1;" vertex="1" parent="1">
          <mxGeometry x="666" y="330" width="100" height="60" as="geometry" />
        </mxCell>
      </root>
    </mxGraphModel>
  </diagram>
</mxfile>
